<svg width="60" height="83" viewBox="0 0 60 83" fill="none" xmlns="http://www.w3.org/2000/svg">
<g clip-path="url(#clip0_2_1131)">
<path d="M59.2204 0.245308L40.9031 21.0117L18.7016 21.0485L0.302617 0.245308V41.8925C0.29938 41.9424 0.30892 42.091 0.331238 42.3382C0.367028 42.6339 0.478256 42.9155 0.654243 43.1559L29.7574 82.69L58.836 43.1559C59.012 42.9155 59.1232 42.6339 59.159 42.3382C59.1885 42.1342 59.209 28.1033 59.2204 0.245308Z" fill="white"/>
<path d="M33.2124 75.2233L31.9858 73.8209L41.2794 23.6979L57.3928 42.3259L33.2124 75.2233Z" fill="#222222"/>
<path d="M26.3065 75.2234L2.11792 42.3382L18.2314 23.7102L27.5249 73.8373L26.3065 75.2234Z" fill="#222222"/>
<path d="M47.8129 43.1231L39.6519 52.5066L38.3435 46.7498L47.8129 43.1231Z" fill="white"/>
</g>
<defs>
<clipPath id="clip0_2_1131">
<rect width="59.2857" height="83" fill="white"/>
</clipPath>
</defs>
</svg>
